<svg xmlns="http://www.w3.org/2000/svg" viewBox="0 0 1440 1040" width="1440" height="1040">
  <style>
    text { font-family: 'Helvetica Neue', Helvetica, Arial, 'PingFang SC', 'Microsoft YaHei', 'SimHei', sans-serif; fill: #111827; }
    .title { font-size: 26px; font-weight: 700; }
    .subtitle { font-size: 13px; fill: #6b7280; }
    .layer { font-size: 13px; font-weight: 700; fill: #374151; }
    .node-title { font-size: 14px; font-weight: 700; }
    .node-sub { font-size: 11px; fill: #4b5563; }
    .small { font-size: 11px; fill: #6b7280; }
    .legend { font-size: 12px; fill: #4b5563; }
  </style>
  <defs>
    <marker id="arrow-blue" markerWidth="10" markerHeight="7" refX="9" refY="3.5" orient="auto">
      <polygon points="0 0, 10 3.5, 0 7" fill="#2563eb"/>
    </marker>
    <marker id="arrow-green" markerWidth="10" markerHeight="7" refX="9" refY="3.5" orient="auto">
      <polygon points="0 0, 10 3.5, 0 7" fill="#16a34a"/>
    </marker>
    <marker id="arrow-purple" markerWidth="10" markerHeight="7" refX="9" refY="3.5" orient="auto">
      <polygon points="0 0, 10 3.5, 0 7" fill="#9333ea"/>
    </marker>
    <marker id="arrow-orange" markerWidth="10" markerHeight="7" refX="9" refY="3.5" orient="auto">
      <polygon points="0 0, 10 3.5, 0 7" fill="#ea580c"/>
    </marker>
    <marker id="arrow-x" markerWidth="10" markerHeight="7" refX="9" refY="3.5" orient="auto">
      <polygon points="0 0, 10 3.5, 0 7" fill="#dc2626"/>
    </marker>
  </defs>
  <rect width="1440" height="1040" fill="#ffffff"/>

  <text x="40" y="48" class="title">收单业务系分架构图</text>
  <text x="40" y="74" class="subtitle">系统边界：外部收单产品和支付网关负责支付信息流，wind-funds 负责资金事实、账务、清结算、对账、投影和治理。</text>

  <rect x="36" y="108" width="1368" height="118" rx="10" fill="#f8fafc" stroke="#d1d5db" stroke-dasharray="7,5"/>
  <text x="56" y="133" class="layer">外部系统边界</text>

  <rect x="64" y="154" width="160" height="52" rx="8" fill="#eff6ff" stroke="#bfdbfe"/>
  <text x="144" y="175" text-anchor="middle" class="node-title">业务交易系统</text>
  <text x="144" y="193" text-anchor="middle" class="node-sub">订单 / 履约 / 售后</text>

  <rect x="262" y="154" width="170" height="52" rx="8" fill="#eff6ff" stroke="#bfdbfe"/>
  <text x="347" y="175" text-anchor="middle" class="node-title">外部收单产品</text>
  <text x="347" y="193" text-anchor="middle" class="node-sub">支付订单 / 支付尝试</text>

  <rect x="470" y="154" width="178" height="52" rx="8" fill="#fff7ed" stroke="#fdba74"/>
  <text x="559" y="175" text-anchor="middle" class="node-title">支付网关 / 通道</text>
  <text x="559" y="193" text-anchor="middle" class="node-sub">PSP / 银行 / 卡组织</text>

  <rect x="686" y="154" width="188" height="52" rx="8" fill="#faf5ff" stroke="#d8b4fe"/>
  <text x="780" y="175" text-anchor="middle" class="node-title">风控合规系统</text>
  <text x="780" y="193" text-anchor="middle" class="node-sub">KYB / 名单 / 阻断</text>

  <rect x="912" y="154" width="168" height="52" rx="8" fill="#f0fdf4" stroke="#86efac"/>
  <text x="996" y="175" text-anchor="middle" class="node-title">财务 / 审计</text>
  <text x="996" y="193" text-anchor="middle" class="node-sub">凭证 / 报表 / 核对</text>

  <rect x="1118" y="154" width="120" height="52" rx="8" fill="#fef2f2" stroke="#fecaca"/>
  <text x="1178" y="175" text-anchor="middle" class="node-title">PCI 边界</text>
  <text x="1178" y="193" text-anchor="middle" class="node-sub">Token Vault</text>

  <rect x="1276" y="154" width="98" height="52" rx="8" fill="#f8fafc" stroke="#d1d5db"/>
  <text x="1325" y="175" text-anchor="middle" class="node-title">BI / 数仓</text>
  <text x="1325" y="193" text-anchor="middle" class="node-sub">只读消费</text>

  <rect x="36" y="260" width="1368" height="560" rx="12" fill="#ffffff" stroke="#94a3b8" stroke-width="1.5"/>
  <text x="56" y="288" class="layer">wind-funds 模块化单体边界</text>

  <rect x="64" y="320" width="1304" height="76" rx="8" fill="#f1f5f9" stroke="#cbd5e1"/>
  <text x="84" y="346" class="node-title">接入与契约层</text>
  <rect x="230" y="330" width="180" height="46" rx="7" fill="#eff6ff" stroke="#bfdbfe"/>
  <text x="320" y="350" text-anchor="middle" class="node-title">AcquiringEventIngestPort</text>
  <text x="320" y="367" text-anchor="middle" class="node-sub">中立事件 / 幂等 / 脱敏</text>
  <rect x="458" y="330" width="180" height="46" rx="7" fill="#eff6ff" stroke="#bfdbfe"/>
  <text x="548" y="350" text-anchor="middle" class="node-title">FundsInstruction API</text>
  <text x="548" y="367" text-anchor="middle" class="node-sub">资金指令入口</text>
  <rect x="686" y="330" width="180" height="46" rx="7" fill="#faf5ff" stroke="#d8b4fe"/>
  <text x="776" y="350" text-anchor="middle" class="node-title">RiskDecisionRef</text>
  <text x="776" y="367" text-anchor="middle" class="node-sub">规则版本 / 阻断原因</text>
  <rect x="914" y="330" width="210" height="46" rx="7" fill="#fff7ed" stroke="#fdba74"/>
  <text x="1019" y="350" text-anchor="middle" class="node-title">ChannelSettlementRef</text>
  <text x="1019" y="367" text-anchor="middle" class="node-sub">文件 / 回单 / 外部流水</text>

  <rect x="64" y="430" width="1304" height="165" rx="8" fill="#ffffff" stroke="#d1d5db"/>
  <text x="84" y="457" class="node-title">资金主链路</text>
  <rect x="112" y="490" width="158" height="62" rx="8" fill="#eff6ff" stroke="#93c5fd"/>
  <text x="191" y="514" text-anchor="middle" class="node-title">transaction-face</text>
  <text x="191" y="533" text-anchor="middle" class="node-sub">DTO / Request / Query</text>
  <rect x="310" y="490" width="168" height="62" rx="8" fill="#eff6ff" stroke="#93c5fd"/>
  <text x="394" y="514" text-anchor="middle" class="node-title">transaction-impl</text>
  <text x="394" y="533" text-anchor="middle" class="node-sub">编排 / 幂等 / 生命周期</text>
  <rect x="518" y="490" width="156" height="62" rx="8" fill="#f0fdfa" stroke="#5eead4"/>
  <text x="596" y="514" text-anchor="middle" class="node-title">route resolver</text>
  <text x="596" y="533" text-anchor="middle" class="node-sub">商户 / 平台 / 费用</text>
  <rect x="714" y="490" width="150" height="62" rx="8" fill="#f0fdf4" stroke="#86efac"/>
  <text x="789" y="514" text-anchor="middle" class="node-title">wallet account</text>
  <text x="789" y="533" text-anchor="middle" class="node-sub">余额桶 / 账户约束</text>
  <rect x="904" y="490" width="150" height="62" rx="8" fill="#f0fdf4" stroke="#86efac"/>
  <text x="979" y="514" text-anchor="middle" class="node-title">ledger-face</text>
  <text x="979" y="533" text-anchor="middle" class="node-sub">账本写入契约</text>
  <rect x="1094" y="490" width="170" height="62" rx="8" fill="#f0fdf4" stroke="#86efac"/>
  <text x="1179" y="514" text-anchor="middle" class="node-title">ledger-impl</text>
  <text x="1179" y="533" text-anchor="middle" class="node-sub">分录 / 余额投影</text>

  <rect x="64" y="626" width="1304" height="152" rx="8" fill="#ffffff" stroke="#d1d5db"/>
  <text x="84" y="653" class="node-title">运营与治理链路</text>
  <rect x="118" y="682" width="180" height="58" rx="8" fill="#fff7ed" stroke="#fdba74"/>
  <text x="208" y="705" text-anchor="middle" class="node-title">reconciliation-face</text>
  <text x="208" y="723" text-anchor="middle" class="node-sub">对账 / 清结算契约</text>
  <rect x="338" y="682" width="190" height="58" rx="8" fill="#fff7ed" stroke="#fdba74"/>
  <text x="433" y="705" text-anchor="middle" class="node-title">reconciliation-impl</text>
  <text x="433" y="723" text-anchor="middle" class="node-sub">清分 / 清算 / 结算 / 出款</text>
  <rect x="568" y="682" width="170" height="58" rx="8" fill="#fef2f2" stroke="#fca5a5"/>
  <text x="653" y="705" text-anchor="middle" class="node-title">exception case</text>
  <text x="653" y="723" text-anchor="middle" class="node-sub">差错 / 调账 / 核销</text>
  <rect x="778" y="682" width="170" height="58" rx="8" fill="#faf5ff" stroke="#d8b4fe"/>
  <text x="863" y="705" text-anchor="middle" class="node-title">projection</text>
  <text x="863" y="723" text-anchor="middle" class="node-sub">商户账单 / 时间线</text>
  <rect x="988" y="682" width="170" height="58" rx="8" fill="#f8fafc" stroke="#cbd5e1"/>
  <text x="1073" y="705" text-anchor="middle" class="node-title">governance</text>
  <text x="1073" y="723" text-anchor="middle" class="node-sub">归档 / 重放 / 差异</text>

  <ellipse cx="1240" cy="694" rx="52" ry="15" fill="#ecfeff" stroke="#67e8f9"/>
  <rect x="1188" y="694" width="104" height="50" fill="#ecfeff" stroke="none"/>
  <line x1="1188" y1="694" x2="1188" y2="744" stroke="#67e8f9"/>
  <line x1="1292" y1="694" x2="1292" y2="744" stroke="#67e8f9"/>
  <ellipse cx="1240" cy="744" rx="52" ry="15" fill="#cffafe" stroke="#67e8f9"/>
  <text x="1240" y="724" text-anchor="middle" class="node-title">audit store</text>
  <text x="1240" y="741" text-anchor="middle" class="node-sub">digest / evidence</text>

  <path d="M432 180 L470 180" stroke="#2563eb" stroke-width="2" marker-end="url(#arrow-blue)"/>
  <path d="M347 206 C347 248 320 290 320 330" stroke="#2563eb" stroke-width="2" fill="none" marker-end="url(#arrow-blue)"/>
  <path d="M559 206 C610 255 1019 282 1019 330" stroke="#ea580c" stroke-width="2" fill="none" marker-end="url(#arrow-orange)"/>
  <path d="M780 206 C780 260 776 288 776 330" stroke="#9333ea" stroke-width="2" fill="none" marker-end="url(#arrow-purple)"/>
  <path d="M1178 206 C1178 255 366 282 366 330" stroke="#dc2626" stroke-width="1.8" stroke-dasharray="7,5" fill="none" marker-end="url(#arrow-x)"/>

  <path d="M410 353 L458 353" stroke="#2563eb" stroke-width="2" marker-end="url(#arrow-blue)"/>
  <path d="M548 376 C548 430 191 430 191 490" stroke="#2563eb" stroke-width="2" fill="none" marker-end="url(#arrow-blue)"/>
  <path d="M270 521 L310 521" stroke="#2563eb" stroke-width="2" marker-end="url(#arrow-blue)"/>
  <path d="M478 521 L518 521" stroke="#2563eb" stroke-width="2" marker-end="url(#arrow-blue)"/>
  <path d="M674 521 L714 521" stroke="#16a34a" stroke-width="2" marker-end="url(#arrow-green)"/>
  <path d="M864 521 L904 521" stroke="#16a34a" stroke-width="2" marker-end="url(#arrow-green)"/>
  <path d="M1054 521 L1094 521" stroke="#16a34a" stroke-width="2" marker-end="url(#arrow-green)"/>
  <path d="M1179 552 C1179 610 433 620 433 682" stroke="#ea580c" stroke-width="2" fill="none" marker-end="url(#arrow-orange)"/>
  <path d="M528 711 L568 711" stroke="#dc2626" stroke-width="2" marker-end="url(#arrow-x)"/>
  <path d="M738 711 L778 711" stroke="#9333ea" stroke-width="2" marker-end="url(#arrow-purple)"/>
  <path d="M948 711 L988 711" stroke="#9333ea" stroke-width="2" marker-end="url(#arrow-purple)"/>
  <path d="M1158 711 L1188 711" stroke="#9333ea" stroke-width="2" marker-end="url(#arrow-purple)"/>

  <path d="M433 740 C470 820 1160 840 1065 202" stroke="#16a34a" stroke-width="1.8" stroke-dasharray="7,5" fill="none" marker-end="url(#arrow-green)"/>
  <path d="M1073 740 C1100 830 1325 830 1325 206" stroke="#9333ea" stroke-width="1.8" stroke-dasharray="7,5" fill="none" marker-end="url(#arrow-purple)"/>

  <rect x="36" y="852" width="420" height="126" rx="10" fill="#f8fafc" stroke="#d1d5db"/>
  <text x="56" y="879" class="node-title">模块边界红线</text>
  <text x="60" y="904" class="small">1. core / ledger 不依赖外部通道、报文、SDK 或 Mapper 细节。</text>
  <text x="60" y="928" class="small">2. route 只解析资金路径，不写交易事实或账本事实。</text>
  <text x="60" y="952" class="small">3. 对账通过不写账，差错必须经审批和调账事实。</text>

  <rect x="496" y="852" width="436" height="126" rx="10" fill="#fff7ed" stroke="#fdba74"/>
  <text x="516" y="879" class="node-title">当前落地策略</text>
  <text x="520" y="904" class="small">先不新增物理 acquiring 模块；以逻辑端口承接中立收单事件。</text>
  <text x="520" y="928" class="small">若未来承接支付订单 / 支付尝试生命周期，再补 ADR 和 Execution Grant。</text>
  <text x="520" y="952" class="small">编码从契约夹具开始，不直接进入完整资金流。</text>

  <rect x="972" y="852" width="432" height="126" rx="10" fill="#f0fdf4" stroke="#86efac"/>
  <text x="992" y="879" class="node-title">图例</text>
  <line x1="996" y1="906" x2="1042" y2="906" stroke="#2563eb" stroke-width="2" marker-end="url(#arrow-blue)"/>
  <text x="1054" y="910" class="legend">同步命令 / 资金事实接入</text>
  <line x1="996" y1="930" x2="1042" y2="930" stroke="#16a34a" stroke-width="2" marker-end="url(#arrow-green)"/>
  <text x="1054" y="934" class="legend">账务 / 只读输出</text>
  <line x1="996" y1="954" x2="1042" y2="954" stroke="#dc2626" stroke-width="2" marker-end="url(#arrow-x)"/>
  <text x="1054" y="958" class="legend">风险 / 差错 / 敏感边界</text>

  <text x="40" y="1010" class="subtitle">验证口径：本图是系统设计预案，不代表已新增模块、DDL、公共契约或生产编码授权。</text>
</svg>
